HIERARCHY
ROOT Hips
{
	OFFSET 0.00000 0.00000 0.00000
	CHANNELS 6 Xposition Yposition Zposition Zrotation Yrotation Xrotation 
	JOINT LHipJoint
	{
		OFFSET 0 0 0
		CHANNELS 3 Zrotation Yrotation Xrotation
		JOINT LeftHip
		{
			OFFSET 1.51378 -1.89840 0.47569
			CHANNELS 3 Zrotation Yrotation Xrotation
			JOINT LeftKnee
			{
				OFFSET 2.53380 -6.96157 0.00000
				CHANNELS 3 Zrotation Yrotation Xrotation
				JOINT LeftAnkle
				{
					OFFSET 2.74874 -7.55212 0.00000
					CHANNELS 3 Zrotation Yrotation Xrotation
					JOINT LeftToe
					{
						OFFSET 0.18263 -0.50178 1.99677
						CHANNELS 3 Zrotation Yrotation Xrotation
						End Site
						{
							OFFSET 0.00000 -0.00000 1.03711
						}
					}
				}
			}
		}
	}
	JOINT RHipJoint
	{
		OFFSET 0 0 0
		CHANNELS 3 Zrotation Yrotation Xrotation
		JOINT RightHip
		{
			OFFSET -1.43037 -1.89840 0.47569
			CHANNELS 3 Zrotation Yrotation Xrotation
			JOINT RightKnee
			{
				OFFSET -2.69849 -7.41406 0.00000
				CHANNELS 3 Zrotation Yrotation Xrotation
				JOINT RightAnkle
				{
					OFFSET -2.69369 -7.40087 0.00000
					CHANNELS 3 Zrotation Yrotation Xrotation
					JOINT RightToe
					{
						OFFSET -0.28932 -0.79491 2.04975
						CHANNELS 3 Zrotation Yrotation Xrotation
						End Site
						{
							OFFSET 0.00009 0.00010 1.09536
						}
					}
				}
			}
		}
	}
	JOINT lowerback
	{
		OFFSET 0 0 0
		CHANNELS 3 Zrotation Yrotation Xrotation
		JOINT Chest
		{
			OFFSET 0.01912 1.94784 -0.02419
			CHANNELS 3 Zrotation Yrotation Xrotation
			JOINT Chest2
			{
				OFFSET 0.07565 1.94258 0.01909
				CHANNELS 3 Zrotation Yrotation Xrotation
				JOINT lowerneck
				{
					OFFSET 0 0 0
					CHANNELS 3 Zrotation Yrotation Xrotation
					JOINT Neck
					{
						OFFSET -0.07010 1.86195 0.18976
						CHANNELS 3 Zrotation Yrotation Xrotation
						JOINT Head
						{
							OFFSET 0.02284 1.86595 -0.31497
							CHANNELS 3 Zrotation Yrotation Xrotation
							End Site
							{
								OFFSET 0.01200 1.90122 -0.12838
							}
						}
					}
				}
				JOINT LeftCollar
				{
					OFFSET 0 0 0
					CHANNELS 3 Zrotation Yrotation Xrotation
					JOINT LeftShoulder
					{
						OFFSET 3.39189 0.96331 -0.10437
CHANNELS 3 Zrotation Xrotation Yrotation
						JOINT LeftElbow
						{
OFFSET 0 -5.148450 0.000000
CHANNELS 3 Zrotation Xrotation Yrotation
							JOINT LeftWrist
							{
OFFSET 0 -3.436740 -0.000000
CHANNELS 3 Zrotation Xrotation Yrotation
								JOINT lhand
								{
									OFFSET 0 0 0
CHANNELS 3 Zrotation Xrotation Yrotation
									JOINT LFingers
									{
OFFSET 0 -0.588710 0.000000
CHANNELS 3 Zrotation Xrotation Yrotation
										End Site
										{
OFFSET 0 -0.474630 0.000000
										}
									}
								}
								JOINT LThumb
								{
OFFSET 0 0.000000 0.000000
CHANNELS 3 Zrotation Xrotation Yrotation
									End Site
									{
OFFSET 0 -0.481880 0.481880
									}
								}
							}
						}
					}
				}
				JOINT RightCollar
				{
					OFFSET 0 0 0
					CHANNELS 3 Zrotation Yrotation Xrotation
					JOINT RightShoulder
					{
						OFFSET -3.34934 1.18831 -0.19928
CHANNELS 3 Zrotation Xrotation Yrotation
						JOINT RightElbow
						{
OFFSET 0 -5.421850 0.000000
CHANNELS 3 Zrotation Xrotation Yrotation
							JOINT RightWrist
							{
OFFSET 0 -3.513170 -0.000000
CHANNELS 3 Zrotation Xrotation Yrotation
								JOINT rhand
								{
									OFFSET 0 0 0
CHANNELS 3 Zrotation Xrotation Yrotation
									JOINT RFingers
									{
OFFSET 0 -0.663190 0.000000
CHANNELS 3 Zrotation Xrotation Yrotation
										End Site
										{
OFFSET 0 -0.534680 0.000000
										}
									}
								}
								JOINT RThumb
								{
OFFSET 0 0.000000 0.000000
CHANNELS 3 Zrotation Xrotation Yrotation
									End Site
									{
OFFSET 0 -0.542840 0.542840
									}
								}
							}
						}
					}
				}
			}
		}
	}
}
MOTION
Frames: 7
Frame Time: 0.008333333333333333
15.960800 17.758600 -5.775600 -161.561000 -86.202500 168.919000 0.000000 0.000000 0.000000 -19.737600 -8.161800 -19.325800 3.269800 11.119600 32.684200 1.218400 1.720300 -21.539800 1.583400 -7.938400 -22.527200 0.000000 0.000000 0.000000 24.355600 12.638600 -20.088100 -5.165900 -13.568200 41.534500 -2.496400 0.716900 -29.731700 -0.122500 -2.256700 6.215600 0.381200 1.770700 0.079300 3.023800 2.316300 0.414300 2.889600 1.139900 0.270000 -3.226000 -0.568100 -13.994800 -2.776100 -0.056400 33.583200 -0.643000 -1.189100 13.729100 -0.000000 0.000000 0.000000 -2.147100 1.179200 -14.594600 16.580000 -26.300700 3.899400 23.757200 6.600800 -25.215400 0.000000 0.000000 0.000000 -7.125000 0.000000 0.000000 -6.528000 57.086100 1.938600 -0.000000 0.000000 0.000000 -1.413500 -1.095700 9.859300 -13.553800 -22.093300 -2.658000 -27.920100 -2.380200 -12.360300 0.000000 0.000000 0.000000 7.125000 0.000000 -0.000000 -0.464400 16.051500 -0.317900
15.918263 17.775372 -5.739245 -165.094945 -86.553271 172.700394 0.000000 0.000000 0.000000 -20.314092 -8.715654 -19.352319 3.263686 11.110151 32.652218 1.157420 2.254296 -21.250232 1.500379 -7.737018 -21.918057 0.000000 0.000000 0.000000 23.848724 12.626734 -20.090288 -5.096838 -13.492043 41.239314 -2.448356 0.640374 -29.461746 -0.082824 -1.855234 5.105837 -0.720915 1.509606 0.076671 3.001424 1.976789 0.390128 3.486868 0.970717 0.226180 -3.145042 -0.441481 -14.245800 -2.566152 0.044351 33.780980 -0.564011 -1.114102 13.869977 0.000000 0.000000 0.000000 -2.316748 1.917227 -16.069765 15.954435 -25.458821 3.626351 21.043564 8.226117 -23.787171 0.000000 0.000000 0.000000 -7.125000 0.000000 0.000000 -8.810714 55.044173 2.185744 0.000000 0.000000 0.000000 -1.465324 -1.628597 11.815613 -14.340653 -23.219532 -2.961158 -28.920013 -4.414442 -11.615479 0.000000 0.000000 0.000000 7.125000 0.000000 0.000000 -1.218453 16.765658 -0.815787
15.849993 17.764582 -5.695350 -166.778781 -85.953620 174.192055 0.000000 0.000000 0.000000 -20.592052 -7.825116 -19.049405 3.263672 11.110057 32.651957 1.171581 2.521694 -21.497798 1.643347 -8.079783 -22.956678 0.000000 0.000000 0.000000 23.998411 13.821113 -19.160041 -5.111727 -13.508617 41.303384 -2.404872 -1.172259 -29.785557 -0.011962 -0.705756 1.939552 -1.101429 1.618817 0.134120 2.994113 2.123549 0.469624 3.693152 1.042810 0.252244 -3.274277 -0.499181 -13.930525 -2.393041 -0.086171 33.604155 -0.486790 -1.159884 13.721531 0.000000 0.000000 0.000000 -3.197877 1.918483 -15.485305 15.418788 -24.726352 3.399209 21.413276 8.245386 -24.559049 0.000000 0.000000 0.000000 -7.125000 0.000000 0.000000 -8.748822 55.910154 2.354663 0.000000 0.000000 0.000000 -1.944749 -1.796099 14.662738 -15.042444 -24.205115 -3.243288 -29.320614 -7.178551 -12.801732 0.000000 0.000000 0.000000 7.125000 0.000000 0.000000 -1.387207 15.375565 -0.970030
15.781573 17.767830 -5.588605 -162.544891 -85.062037 170.106504 0.000000 0.000000 0.000000 -20.586297 -7.996702 -18.923610 3.313081 11.185345 32.907536 1.033061 4.323690 -21.220562 1.874757 -8.598863 -24.549188 0.000000 0.000000 0.000000 24.107625 13.033059 -19.414943 -5.094277 -13.489161 41.228397 -2.415485 -0.272893 -29.543625 -0.001454 0.247263 -0.679367 0.142560 1.933073 -0.119506 2.871921 2.535959 0.352453 2.872842 1.251488 0.304065 -3.387315 -0.533211 -14.092181 -2.220920 -0.155443 33.785643 -0.414075 -1.187093 13.838140 0.000000 0.000000 0.000000 -3.337912 2.522103 -18.325649 15.722747 -25.143219 3.527350 21.794814 7.964371 -24.917210 0.000000 0.000000 0.000000 -7.125000 0.000000 0.000000 -8.501463 56.357064 2.379679 0.000000 0.000000 0.000000 -2.112835 -2.356850 13.882563 -15.371322 -24.660869 -3.379363 -28.119503 -5.102152 -11.959444 0.000000 0.000000 0.000000 7.125000 0.000000 0.000000 -0.635197 16.475764 -0.428797
15.763630 17.773935 -5.580770 -167.788424 -85.519495 175.535531 0.000000 0.000000 0.000000 -21.181016 -7.689083 -18.951521 3.206452 11.021972 32.354068 1.034685 3.934475 -21.014039 1.954161 -8.769866 -25.078179 0.000000 0.000000 0.000000 23.527077 13.549931 -19.564324 -5.146634 -13.547094 41.452442 -2.408604 -1.029409 -29.757960 -0.001660 0.265032 -0.728344 -0.886908 1.647474 -0.051631 2.759335 2.170621 0.161157 3.329291 1.074133 0.053874 -3.197460 -0.476532 -14.248394 -2.372888 -0.039388 33.426637 -0.482968 -1.118026 13.712887 0.000000 0.000000 0.000000 -3.287548 2.844773 -20.279432 16.267984 -25.882597 3.762182 18.224191 5.790503 -25.508609 0.000000 0.000000 0.000000 -7.125000 0.000000 0.000000 -12.523891 56.212082 3.482325 0.000000 0.000000 0.000000 -2.029877 -2.575083 14.770693 -15.809625 -25.261863 -3.564348 -28.589199 -5.768870 -11.623892 0.000000 0.000000 0.000000 7.125000 0.000000 0.000000 -0.988468 16.796203 -0.660717
15.737994 17.776056 -5.565225 -161.978070 -85.426267 169.867763 0.000000 0.000000 0.000000 -20.754266 -7.908685 -18.994921 3.243144 11.078601 32.545458 1.012364 4.368089 -21.060110 2.001922 -8.869418 -25.388159 0.000000 0.000000 0.000000 23.969331 13.140048 -19.262203 -4.966897 -13.346391 40.679301 -2.379312 -0.819240 -29.504485 -0.005519 0.474937 -1.305090 -0.331392 1.777909 -0.363836 2.635805 2.340439 0.143836 2.899619 1.158066 0.227514 -3.179723 -0.690833 -14.494834 -2.128854 -0.411247 33.372714 -0.446718 -1.236172 13.743578 0.000000 0.000000 0.000000 -2.621315 2.458053 -22.012604 16.619125 -26.352923 3.916760 22.332279 7.096962 -24.649513 0.000000 0.000000 0.000000 -7.125000 0.000000 0.000000 -7.817193 56.194702 2.155441 0.000000 0.000000 0.000000 -1.715093 -2.717787 14.566966 -15.621266 -25.004430 -3.484320 -28.234396 -5.741760 -12.294917 0.000000 0.000000 0.000000 7.125000 0.000000 0.000000 -0.686650 16.085751 -0.469517
15.711820 17.813675 -5.547618 -148.694658 -85.545458 156.614352 0.000000 0.000000 0.000000 -19.818493 -9.255764 -18.682521 3.297591 11.161783 32.827567 0.936117 5.246147 -20.899255 1.795523 -8.426536 -24.017436 0.000000 0.000000 0.000000 24.847202 12.344670 -18.489071 -4.595120 -12.912858 39.043178 -2.393836 0.623446 -29.131230 -0.036351 -1.229410 3.380248 0.527126 1.792502 -0.526748 2.951781 2.343040 0.048266 2.746878 1.156270 0.242205 -3.362887 -0.710191 -14.357135 -2.133530 -0.383958 33.268119 -0.408768 -1.243727 13.669135 0.000000 0.000000 0.000000 -2.769054 2.396484 -22.453489 17.191627 -27.109753 4.174352 21.405121 6.133282 -24.412319 0.000000 0.000000 0.000000 -7.125000 0.000000 0.000000 -8.694661 55.758139 2.307861 0.000000 0.000000 0.000000 -1.880952 -2.491764 13.737424 -14.966494 -24.099381 -3.212248 -28.401701 -4.551055 -11.960555 0.000000 0.000000 0.000000 7.125000 0.000000 0.000000 -0.830336 16.440323 -0.561443
